<svg xmlns="http://www.w3.org/2000/svg" width="19.885" height="16.625" viewBox="0 0 19.885 16.625"><defs><style>.a{fill:#a0a0a0;stroke:#a0a0a0;stroke-width:0.25px;}</style></defs><g transform="translate(0.125 -1.466)"><g transform="translate(0 1.591)"><path class="a" d="M11.045,16.375h-9A1.9,1.9,0,0,1,0,14.67V1.706A1.9,1.9,0,0,1,2.045,0h9A1.9,1.9,0,0,1,13.09,1.706V5.8a.416.416,0,0,1-.818,0V1.706A1.141,1.141,0,0,0,11.045.682h-9A1.141,1.141,0,0,0,.818,1.706V14.67a1.141,1.141,0,0,0,1.227,1.023h9a1.141,1.141,0,0,0,1.227-1.023V10.576a.416.416,0,0,1,.818,0V14.67A1.9,1.9,0,0,1,11.045,16.375Z"/></g><g transform="translate(6.545 9.408)"><path class="a" d="M20.681,12.318H8.409a.409.409,0,1,1,0-.818H20.681a.409.409,0,1,1,0,.818Z" transform="translate(-8 -11.5)"/></g><g transform="translate(15.544 6.136)"><path class="a" d="M19.409,14.863a.409.409,0,0,1-.29-.7L22.1,11.182,19.12,8.2A.409.409,0,0,1,19.7,7.62l3.272,3.272a.409.409,0,0,1,0,.578L19.7,14.744A.411.411,0,0,1,19.409,14.863Z" transform="translate(-19 -7.501)"/></g></g></svg>