<svg xmlns="http://www.w3.org/2000/svg" width="24.5" height="24.5" viewBox="0 0 24.5 24.5">
  <g id="qr-code_3_" data-name="qr-code(3)" transform="translate(0.25 0.25)">
    <path id="Pfad_74" data-name="Pfad 74" d="M23.25,6.75A.75.75,0,0,1,22.5,6V2.156a.657.657,0,0,0-.656-.656H18A.75.75,0,0,1,18,0h3.844A2.159,2.159,0,0,1,24,2.156V6A.75.75,0,0,1,23.25,6.75Z" fill="#212121" stroke="#212121" stroke-width="0.5"/>
    <path id="Pfad_75" data-name="Pfad 75" d="M.75,6.75A.75.75,0,0,1,0,6V2.156A2.159,2.159,0,0,1,2.156,0H6A.75.75,0,0,1,6,1.5H2.156a.657.657,0,0,0-.656.656V6A.75.75,0,0,1,.75,6.75Z" fill="#212121" stroke="#212121" stroke-width="0.5"/>
    <path id="Pfad_76" data-name="Pfad 76" d="M6,24H2.156A2.159,2.159,0,0,1,0,21.844V18a.75.75,0,0,1,1.5,0v3.844a.657.657,0,0,0,.656.656H6A.75.75,0,0,1,6,24Z" fill="#212121" stroke="#212121" stroke-width="0.5"/>
    <path id="Pfad_77" data-name="Pfad 77" d="M21.844,24H18a.75.75,0,0,1,0-1.5h3.844a.657.657,0,0,0,.656-.656V18A.75.75,0,0,1,24,18v3.844A2.159,2.159,0,0,1,21.844,24Z" fill="#212121" stroke="#212121" stroke-width="0.5"/>
    <path id="Pfad_78" data-name="Pfad 78" d="M9.094,11.25H5.156A2.159,2.159,0,0,1,3,9.094V5.156A2.159,2.159,0,0,1,5.156,3H9.094A2.159,2.159,0,0,1,11.25,5.156V9.094A2.159,2.159,0,0,1,9.094,11.25ZM5.156,4.5a.657.657,0,0,0-.656.656V9.094a.657.657,0,0,0,.656.656H9.094a.657.657,0,0,0,.656-.656V5.156A.657.657,0,0,0,9.094,4.5Z" fill="#212121" stroke="#212121" stroke-width="0.5"/>
    <path id="Pfad_79" data-name="Pfad 79" d="M9.094,21H5.156A2.159,2.159,0,0,1,3,18.844V14.906A2.159,2.159,0,0,1,5.156,12.75H9.094a2.159,2.159,0,0,1,2.156,2.156v3.938A2.159,2.159,0,0,1,9.094,21ZM5.156,14.25a.657.657,0,0,0-.656.656v3.938a.657.657,0,0,0,.656.656H9.094a.657.657,0,0,0,.656-.656V14.906a.657.657,0,0,0-.656-.656Z" fill="#212121" stroke="#212121" stroke-width="0.5"/>
    <path id="Pfad_80" data-name="Pfad 80" d="M18.844,11.25H14.906A2.159,2.159,0,0,1,12.75,9.094V5.156A2.159,2.159,0,0,1,14.906,3h3.938A2.159,2.159,0,0,1,21,5.156V9.094A2.159,2.159,0,0,1,18.844,11.25ZM14.906,4.5a.657.657,0,0,0-.656.656V9.094a.657.657,0,0,0,.656.656h3.938a.657.657,0,0,0,.656-.656V5.156a.657.657,0,0,0-.656-.656Z" fill="#212121" stroke="#212121" stroke-width="0.5"/>
    <path id="Pfad_81" data-name="Pfad 81" d="M19.781,16.5H18V13.969a1.22,1.22,0,0,0-1.219-1.219H13.969a1.22,1.22,0,0,0-1.219,1.219v2.813A1.22,1.22,0,0,0,13.969,18H16.5v1.781A1.22,1.22,0,0,0,17.719,21h2.063A1.22,1.22,0,0,0,21,19.781V17.719A1.22,1.22,0,0,0,19.781,16.5ZM14.25,14.25H16.5V16.5H14.25ZM19.5,19.5H18V18h1.5Z" fill="#212121" stroke="#212121" stroke-width="0.5"/>
    <path id="Pfad_82" data-name="Pfad 82" d="M7.5,8.25H6.75A.75.75,0,0,1,6,7.5V6.75A.75.75,0,0,1,6.75,6H7.5a.75.75,0,0,1,.75.75V7.5A.75.75,0,0,1,7.5,8.25Z" fill="#212121" stroke="#212121" stroke-width="0.5"/>
    <path id="Pfad_83" data-name="Pfad 83" d="M17.25,8.25H16.5a.75.75,0,0,1-.75-.75V6.75A.75.75,0,0,1,16.5,6h.75a.75.75,0,0,1,.75.75V7.5A.75.75,0,0,1,17.25,8.25Z" fill="#212121" stroke="#212121" stroke-width="0.5"/>
    <path id="Pfad_84" data-name="Pfad 84" d="M7.5,18H6.75A.75.75,0,0,1,6,17.25V16.5a.75.75,0,0,1,.75-.75H7.5a.75.75,0,0,1,.75.75v.75A.75.75,0,0,1,7.5,18Z" fill="#212121" stroke="#212121" stroke-width="0.5"/>
  </g>
</svg>
