<svg xmlns="http://www.w3.org/2000/svg" width="17.874" height="17.66" viewBox="0 0 17.874 17.66"><defs><style>.a{fill:#a0a0a0;stroke:#a0a0a0;stroke-width:0.25px;}</style></defs><g transform="translate(0.238 0.02)"><path class="a" d="M15.658.982V3.6A8.7,8.7,0,0,0,.432,11.518a.29.29,0,0,0,.276.2A.28.28,0,0,0,.8,11.7a.29.29,0,0,0,.185-.366A8.119,8.119,0,0,1,15.363,4.171H12.179v.58h4.059V.982h-.58Z" transform="translate(0 0)"/><path class="a" d="M47.865,160.221a.29.29,0,0,0-.551.18,8.12,8.12,0,0,1-14.38,7.167h3.184v-.58H32.059v3.769h.58v-2.614a8.7,8.7,0,0,0,15.226-7.922Z" transform="translate(-30.897 -154.119)"/><path class="a" d="M170.668,85.567a2.029,2.029,0,1,1,2.029-2.029h.58a2.612,2.612,0,0,0-2.319-2.592v-.887h-.58v.887a2.609,2.609,0,0,0,.29,5.2,2.029,2.029,0,1,1-2.029,2.029h-.58a2.612,2.612,0,0,0,2.319,2.592v.887h.58v-.887a2.609,2.609,0,0,0-.29-5.2Z" transform="translate(-161.969 -77.047)"/></g></svg>